<svg width="35" height="35" viewBox="0 0 35 35" fill="none" xmlns="http://www.w3.org/2000/svg">
<path d="M34.6992 14.3188L30.3799 9.99941V1.02539C30.3799 0.459102 29.9208 0 29.3546 0H5.64516C5.07887 0 4.61977 0.459102 4.61977 1.02539V9.99941C-0.103313 14.7226 0.000182442 14.4776 0.000182442 15.0439V33.9746C0.000182442 34.5409 0.459284 35 1.02557 35H33.9742C34.5405 35 34.9996 34.5409 34.9996 33.9746C34.9996 33.8371 35.0019 15.032 34.9954 14.9559C34.9739 14.7053 34.8608 14.4804 34.6992 14.3188ZM32.3896 14.9094L30.3799 16.3324V12.8996L32.3896 14.9094ZM28.3292 2.05078V17.7843L21.2262 22.8134C19.1892 24.2556 16.43 24.2877 14.3632 22.8897C14.1018 22.7116 7.14605 17.9729 6.67055 17.649V2.05078H28.3292ZM4.61984 16.2518L2.626 14.8935L4.61984 12.8997V16.2518ZM32.9488 32.9492H2.05089V16.9831C2.44328 17.2505 11.1916 23.2105 11.621 23.5029L6.0156 29.1085C5.61515 29.5088 5.61515 30.1581 6.0156 30.5586C6.41605 30.959 7.06525 30.959 7.4657 30.5586L13.3486 24.6756C15.9494 26.3603 19.3872 26.4528 22.1289 24.6777L28.0096 30.5586C28.4099 30.9589 29.0592 30.9591 29.4597 30.5586C29.8601 30.1582 29.8601 29.5089 29.4597 29.1085L23.8324 23.481C24.1646 23.2458 32.5171 17.332 32.9488 17.0263V32.9492Z" fill="#FF7210"/>
<path d="M10.4292 6.83594H24.5684C25.1346 6.83594 25.5937 6.37684 25.5937 5.81055C25.5937 5.24426 25.1346 4.78516 24.5684 4.78516H10.4292C9.86291 4.78516 9.40381 5.24426 9.40381 5.81055C9.40381 6.37684 9.86291 6.83594 10.4292 6.83594Z" fill="#FF7210"/>
<path d="M10.4292 11.6211H24.5684C25.1346 11.6211 25.5937 11.162 25.5937 10.5957C25.5937 10.0294 25.1346 9.57031 24.5684 9.57031H10.4292C9.86291 9.57031 9.40381 10.0294 9.40381 10.5957C9.40381 11.162 9.86291 11.6211 10.4292 11.6211Z" fill="#FF7210"/>
<path d="M10.4292 16.4063H24.5684C25.1346 16.4063 25.5937 15.9471 25.5937 15.3809C25.5937 14.8146 25.1346 14.3555 24.5684 14.3555H10.4292C9.86291 14.3555 9.40381 14.8146 9.40381 15.3809C9.40381 15.9471 9.86291 16.4063 10.4292 16.4063Z" fill="#FF7210"/>
</svg>
