<svg width="35" height="35" viewBox="0 0 35 35" fill="none" xmlns="http://www.w3.org/2000/svg">
<path fill-rule="evenodd" clip-rule="evenodd" d="M6.01885 0.105723C4.94474 0.336064 4.07429 0.858971 3.22766 1.78246C1.57981 3.57994 0.573629 5.63132 0.125579 8.10692C-0.0241809 8.93423 -0.0444317 10.9695 0.0888404 11.8006C0.307495 13.1647 0.710668 14.4228 1.29356 15.5603C1.73778 16.4271 1.96903 16.7801 3.06832 18.2693C6.82458 23.3579 11.6121 28.1487 16.7223 31.9324C18.7233 33.414 19.6223 33.9185 21.1643 34.4251C22.4742 34.8555 23.4355 35.0022 24.9321 35C26.6707 34.9974 28.054 34.7316 29.5632 34.11C31.3337 33.3807 33.373 31.8752 34.1217 30.7444C35.2212 29.0837 35.2709 27.058 34.2538 25.3541C33.9298 24.8114 30.6833 21.5252 30.0632 21.1125C28.3961 20.0027 26.2838 19.9807 24.5958 21.0557C24.3856 21.1895 23.6442 21.8589 22.948 22.5432C22.2148 23.2641 21.5672 23.842 21.4087 23.9172C21.2582 23.9886 20.9296 24.0595 20.6785 24.0747C20.3008 24.0978 20.1587 24.0737 19.8553 23.9347C18.9441 23.5173 14.6389 19.4239 12.3844 16.8313C11.0343 15.2789 10.8774 15.0089 10.92 14.3109C10.9353 14.0597 11.0061 13.7309 11.0775 13.5804C11.1526 13.4217 11.7302 12.7738 12.4507 12.0402C13.1347 11.3437 13.8037 10.6018 13.9374 10.3916C15.0118 8.70266 14.9899 6.58923 13.8807 4.92119C13.4681 4.30081 10.1838 1.05249 9.64132 0.728296C8.54011 0.0702648 7.23243 -0.154463 6.01885 0.105723ZM7.77366 1.43678C7.97302 1.47805 8.36709 1.62036 8.6493 1.75302C9.12513 1.97666 9.29227 2.1241 10.9501 3.78284C12.6109 5.44451 12.7555 5.60866 12.9871 6.09542C13.6136 7.41234 13.4124 9.00953 12.4881 10.0551L12.2158 10.3631L9.93619 8.08707C7.65325 5.80779 7.48173 5.66513 7.09813 5.72687C6.82827 5.77027 6.59682 6.07311 6.59682 6.38285C6.59682 6.6583 6.62836 6.69376 8.91845 8.99173L11.24 11.3214L10.6622 11.9243C10.3444 12.2559 10.0075 12.6789 9.91354 12.8644C9.38052 13.9169 9.42615 15.1689 10.0324 16.1251C11.0301 17.6989 17.2924 23.9645 18.8653 24.9628C19.8207 25.5692 21.0724 25.6151 22.1233 25.0823C22.3081 24.9886 22.7329 24.6514 23.0673 24.3329L23.6754 23.754L27.5192 27.6004C29.6334 29.716 31.3631 31.4705 31.3631 31.4995C31.3631 31.5809 30.2986 32.2534 29.6767 32.5649C28.9515 32.9282 27.675 33.3494 26.8135 33.5096C25.7979 33.6985 23.8537 33.682 22.8952 33.4763C21.9013 33.2631 21.177 33.0234 20.3483 32.6335C19.4849 32.2273 19.0684 31.963 17.6801 30.9401C13.3132 27.7226 9.07703 23.6542 5.66262 19.3988C3.32665 16.4873 2.36159 14.9604 1.85546 13.375C1.15708 11.1872 1.16282 8.84093 1.87194 6.69397C2.55938 4.61254 4.17042 2.38011 5.43377 1.7583C6.1927 1.38475 6.99208 1.27489 7.77366 1.43678ZM19.4093 2.83607C18.1651 3.17135 17.2184 4.12824 16.8926 5.38003C16.7422 5.95776 16.7422 12.6465 16.8926 13.2242C17.2223 14.4907 18.1727 15.4417 19.4386 15.7716C19.758 15.8548 20.4165 15.8735 23.0308 15.8735H26.232V16.9379C26.232 18.1017 26.2842 18.3145 26.6063 18.4613C26.8426 18.5691 27.0194 18.5646 27.2445 18.445C27.3461 18.3912 27.983 17.7905 28.66 17.1102L29.8907 15.8735H30.9204C31.6116 15.8735 32.0786 15.84 32.3412 15.7716C33.607 15.4417 34.5575 14.4907 34.8872 13.2242C35.0376 12.6465 35.0376 5.95776 34.8872 5.38003C34.5575 4.11353 33.607 3.16252 32.3412 2.83265C31.7753 2.68521 19.9576 2.68829 19.4093 2.83607ZM5.09169 3.9131C4.83418 4.04117 4.65897 4.44299 4.75283 4.69003C4.86223 4.97801 5.01356 5.11854 5.26492 5.1657C6.02398 5.30815 6.35327 4.25687 5.66063 3.90242C5.46818 3.80399 5.30481 3.80707 5.09169 3.9131ZM32.3995 4.2811C32.8061 4.46914 33.2516 4.9149 33.4396 5.32171C33.5842 5.63474 33.5866 5.69956 33.5866 9.30209C33.5866 12.9047 33.5842 12.9695 33.4396 13.2825C33.2512 13.6902 32.8052 14.1358 32.3995 14.3218C32.119 14.4503 31.9181 14.4717 30.6969 14.5031L29.3124 14.5387L28.4633 15.3864L27.6141 16.2341L27.5901 15.5761C27.5677 14.9637 27.5529 14.9049 27.3764 14.7284L27.1868 14.5387L23.4425 14.5045C19.7932 14.4711 19.6903 14.4665 19.3803 14.3231C18.9737 14.1351 18.5282 13.6893 18.3402 13.2825C18.197 12.9724 18.1927 12.8762 18.1714 9.50745C18.1565 7.13572 18.1736 5.9399 18.2262 5.69778C18.3724 5.0236 18.8844 4.45757 19.561 4.22202C19.8781 4.11161 20.3558 4.10388 25.9925 4.11839C32.0618 4.13393 32.0825 4.13447 32.3995 4.2811ZM22.2981 8.69355C21.7885 8.98674 21.8017 9.64908 22.3224 9.91638C22.8199 10.1718 23.4162 9.59952 23.1976 9.07634C23.1473 8.9558 23.0578 8.81718 22.9989 8.7683C22.8468 8.64201 22.4594 8.60073 22.2981 8.69355ZM25.6504 8.68226C25.2254 8.85633 25.0991 9.43181 25.4162 9.74916C25.5115 9.84444 25.7024 9.94075 25.8404 9.96321C26.0625 9.99921 26.1194 9.97607 26.3327 9.76257C26.6575 9.43763 26.66 9.16909 26.3414 8.85031C26.1079 8.61668 25.9214 8.5713 25.6504 8.68226ZM28.8848 8.72429C28.6489 8.85236 28.5581 9.02206 28.5581 9.33495C28.5581 9.78044 29.0334 10.0898 29.4515 9.91645C29.7199 9.80529 29.858 9.6015 29.858 9.31661C29.858 9.0159 29.7616 8.84737 29.5173 8.72094C29.2703 8.5932 29.1248 8.59396 28.8848 8.72429ZM8.09671 19.2224C7.76216 19.5571 7.85576 20.086 8.28568 20.2901C8.98761 20.6233 9.57817 19.7323 8.9987 19.2143C8.70232 18.9493 8.36661 18.9523 8.09671 19.2224ZM10.1126 21.0719C9.90725 21.1586 9.67553 21.4759 9.67553 21.6704C9.67553 21.7613 9.71972 21.9211 9.7737 22.0256C9.88317 22.2374 13.3528 25.6738 13.8721 26.0846C14.2934 26.4181 14.6242 26.4421 14.8872 26.1584C15.2953 25.7183 15.193 25.438 14.3405 24.6611C13.976 24.3289 12.9989 23.3868 12.1693 22.5675C10.6181 21.0358 10.4637 20.9236 10.1126 21.0719ZM27.9811 21.6971C28.2044 21.7376 28.6179 21.88 28.9002 22.0134C29.3748 22.2378 29.5473 22.3901 31.2009 24.0446C32.8588 25.7034 33.0061 25.8706 33.2297 26.3467C33.6115 27.1599 33.6999 27.7991 33.5476 28.6443C33.4564 29.1509 33.0854 29.9117 32.7323 30.3169L32.4638 30.6249L28.544 26.7017L24.6242 22.7785L24.9321 22.506C25.7222 21.8063 26.884 21.4981 27.9811 21.6971Z" fill="#FE8C12"/>
</svg>
