<svg width="45" height="45" viewBox="0 0 45 45" fill="none" xmlns="http://www.w3.org/2000/svg">
<path d="M22.7654 0.00105082C20.354 -0.0220244 18.0465 0.335636 15.8543 1.00482L15.6697 16.1883H15.7851C17.5388 13.2231 20.6655 11.3194 24.9806 11.3656C31.6262 11.4464 36.2644 17.0421 36.1144 25.1761C35.999 34.7523 29.9071 39.4481 23.9307 39.3789C20.054 39.3327 16.9735 37.7982 15.0236 34.2331H14.8621L14.5852 38.6636L10.374 38.6174C10.5009 36.7945 10.6509 34.0831 10.674 31.6948L11.0085 3.18543C4.50134 7.06207 0.0939733 14.1115 0.00167253 22.234C-0.148316 34.66 9.80864 44.8477 22.2346 44.9977C34.6606 45.1477 44.8483 35.1907 44.9983 22.7647C45.1483 10.3387 35.1914 0.15104 22.7654 0.00105082Z" fill="#FE8C12"/>
<path d="M22.9846 35.4906C28.0843 35.5483 31.1763 31.4293 31.2456 25.2798C31.3148 19.9033 28.5919 15.2767 23.3884 15.219C20.0656 15.1844 16.9389 17.4111 15.9005 21.1147C15.7852 21.6685 15.6121 22.3262 15.6006 23.1107L15.5429 27.9334C15.5313 28.5449 15.6352 29.1564 15.739 29.7102C16.6389 33.0907 19.4426 35.456 22.9846 35.4906Z" fill="#FE8C12"/>
<path d="M10.3743 38.6058L14.5855 38.6519L14.8624 34.2215H15.0239C16.9738 37.7866 20.0543 39.3211 23.9309 39.3673C29.9074 39.4365 35.9993 34.7522 36.1146 25.1645C36.2646 17.0305 31.6265 11.4347 24.9809 11.354C20.6658 11.3078 17.5391 13.2 15.7854 16.1767H15.67L15.8546 0.993195C14.1355 1.52392 12.5203 2.26233 11.0088 3.16226L10.6742 31.6717C10.6512 34.0715 10.5012 36.7828 10.3743 38.6058ZM15.6008 23.1108C15.6123 22.3377 15.7854 21.6686 15.9008 21.1148C16.9392 17.4112 20.0659 15.1844 23.3887 15.219C28.5921 15.2767 31.3035 19.9149 31.2458 25.2798C31.1766 31.4294 28.0729 35.5483 22.9849 35.4906C19.4428 35.4445 16.6392 33.0908 15.7392 29.6987C15.6354 29.1449 15.5316 28.5335 15.5431 27.922L15.6008 23.1108Z" fill="white"/>
</svg>
